<svg xmlns="http://www.w3.org/2000/svg"  viewBox="0 0 50 50" width="200px" height="200px" baseProfile="basic"><polygon fill="#fff957" points="38,17.494 27,6.525 16,4.793 12,7.102 8,17.494 12,32.506 23,43.475 34,45.207 38,42.898 42,32.506"/><polygon fill="#e6e04f" points="12,7.102 16,4.793 27,6.525 23,8.834"/><polygon fill="#d9d44a" points="34,19.804 38,17.494 27,6.525 23,8.834"/><polygon fill="#b3ae3d" points="34,45.207 38,42.898 42,32.506 38,34.815"/><polygon fill="#bfbb41" points="34,19.804 38,17.494 42,32.506 38,34.815"/><path fill="#b3ae3d" d="M29,23.845l-2-3.464l-1-0.577v-2.309l-2-1.155v2.309l-2-1.155v-2.309l-2-1.155v2.309l-2-1.155v16.166	l2,1.155v2.309l2,1.155V33.66l2,1.155v2.309l2,1.155V35.97l1,0.577l2-1.155v-4.619l-1-1.732l1-0.577V23.845z M20,18.649l6,3.464	l1,1.732v2.309l-1,0.577l-6-3.464V18.649z M27,33.083l-1,0.577l-6-3.464v-4.619l6,3.464l1,1.732V33.083z"/></svg>